<?xml version="1.0" encoding="UTF-8" standalone="no"?>
<svg width="15px" height="10px" viewBox="0 0 15 10" version="1.1" xmlns="http://www.w3.org/2000/svg" xmlns:xlink="http://www.w3.org/1999/xlink" xmlns:sketch="http://www.bohemiancoding.com/sketch/ns">
    <!-- Generator: Sketch 3.3.2 (12043) - http://www.bohemiancoding.com/sketch -->
    <title>icn_users_gray</title>
    <desc>Created with Sketch.</desc>
    <defs/>
    <g id="Page-1" stroke="none" stroke-width="1" fill="none" fill-rule="evenodd" sketch:type="MSPage">
        <g id="02.-index-filter" sketch:type="MSArtboardGroup" transform="translate(-180.000000, -982.000000)" fill="#9B9B9B">
            <g id="Server-1" sketch:type="MSLayerGroup" transform="translate(40.000000, 932.000000)">
                <g id="Server-Details-default" transform="translate(70.000000, 47.000000)" sketch:type="MSShapeGroup">
                    <path d="M77.0054543,7.3972332 C76.7356384,8.15810277 76.0261224,8.62252964 76.0261224,8.62252964 C76.0261224,8.62252964 75.9661633,9.19565217 75.9561702,9.33399209 C75.9661633,9.39328063 75.9861497,10.2826087 77.7449498,10.5395257 C78.7842407,10.7272727 79.5237362,11.0434783 79.7036135,11.6660079 C80.0333885,11.9822134 79.9134703,12.9703557 79.9134703,12.9703557 L70.0002336,12.9703557 C70.0002336,12.9703557 69.9802472,11.9822134 70.3100222,11.6660079 C70.6397972,11.3596838 70.67977,10.7964427 72.43857,10.5395257 C74.1973701,10.2826087 73.9875133,9.36363636 74.0474724,9.39328063 C74.0374792,9.04743083 73.9975064,8.56324111 73.9975064,8.56324111 C73.9975064,8.56324111 73.1680723,8.17786561 72.8982564,7.41699605 C72.3386382,7.18972332 72.4085905,7.0513834 72.3586246,6.75494071 C72.3586246,6.75494071 72.1887405,5.57905138 72.5684814,5.59881423 C72.5684814,5.59881423 73.0281678,5.59881423 72.9682087,5.33201581 C72.9482223,4.87747036 72.9881951,4.87747036 73.0181746,4.57114625 C73.0481541,4.27470356 73.2680042,3.49407115 73.9075678,3.37549407 C74.5471315,3.24703557 74.0374792,3.31620553 74.2573292,3.28656126 C74.467186,3.24703557 74.4072269,3.1284585 74.796961,3.1284585 L75.0567838,3 C75.456511,3 75.616402,3.88932806 75.8262588,3.91897233 C76.0361156,3.9486166 76.0860815,3.8201581 76.5257815,3.90909091 C77.1653452,4.02766798 76.9454952,4.04743083 76.9754747,4.35375494 C77.0154475,4.65019763 77.0654134,4.84782609 77.0054543,5.11462451 C76.935502,5.38142292 77.5051134,5.35177866 77.5051134,5.35177866 C77.9647998,5.35177866 77.814902,6.78458498 77.814902,6.78458498 C77.7449498,7.09090909 77.4251679,7.13043478 77.0054543,7.3972332 L77.0054543,7.3972332 Z M81.5523522,12.9604743 C81.5523522,12.9604743 81.5623453,12.5059289 81.1925976,11.4980237 C80.9327749,11.1126482 80.5630271,10.756917 80.0333885,10.4505929 C80.0233953,10.1837945 80.0034089,9.78853755 80.0034089,9.78853755 C80.0034089,9.78853755 79.3638453,9.49209486 79.1539884,8.90909091 C78.7242816,8.74110672 78.7842407,8.62252964 78.744268,8.40513834 C78.744268,8.40513834 78.6043634,7.49604743 78.9041589,7.51581028 C78.9041589,7.51581028 79.1539884,7.51581028 79.1040225,7.3083004 C79.0840362,6.96245059 79.0540566,6.30039526 79.074043,6.06324111 C79.1040225,5.83596838 79.183968,5.21343874 79.6736339,5.12450593 C80.1632998,5.03557312 80.0333885,5.07509881 80.1932794,5.05533597 C80.3531703,5.03557312 80.3131976,4.93675889 80.612993,4.93675889 L81.2425635,4.83794466 C81.542359,4.83794466 81.7422226,5.25296443 81.9021135,5.2826087 C82.0620044,5.30237154 82.0220317,5.21343874 82.3518067,5.27272727 C82.8414727,5.36166008 82.7715204,6.02371542 82.7915067,6.25098814 C82.8214863,6.47826087 82.8314795,7.15019763 82.7915067,7.35770751 C82.7415408,7.56521739 82.8914386,7.54545455 82.8914386,7.54545455 C83.2312068,7.54545455 83.2112204,8.42490119 83.2112204,8.42490119 C83.1612545,8.66205534 83.0313431,8.6916996 82.7115613,8.88932806 C82.5017045,9.47233202 81.9520794,9.82806324 81.9520794,9.82806324 C81.9520794,9.82806324 81.9021135,10.2727273 81.9021135,10.3814229 C81.9121067,10.4209486 81.6422908,11.1027668 82.9913704,11.3003953 C84.34045,11.4980237 84.5203273,11.8438735 84.7301841,12.1205534 C84.8800818,12.298419 85,13 85,13 C85,13 83.3111522,12.9604743 81.5523522,12.9604743 L81.5523522,12.9604743 Z" id="Shape"/>
                </g>
            </g>
        </g>
    </g>
</svg>