<?xml version="1.0" encoding="UTF-8" standalone="no"?>
<svg width="12px" height="14px" viewBox="0 0 12 14" version="1.1" xmlns="http://www.w3.org/2000/svg" xmlns:xlink="http://www.w3.org/1999/xlink" xmlns:sketch="http://www.bohemiancoding.com/sketch/ns">
    <!-- Generator: Sketch 3.3.2 (12043) - http://www.bohemiancoding.com/sketch -->
    <title>icn_version_gray</title>
    <desc>Created with Sketch.</desc>
    <defs/>
    <g id="Page-1" stroke="none" stroke-width="1" fill="none" fill-rule="evenodd" sketch:type="MSPage">
        <g id="02.-index-filter" sketch:type="MSArtboardGroup" transform="translate(-110.000000, -980.000000)" fill="#9B9B9B">
            <g id="Server-1" sketch:type="MSLayerGroup" transform="translate(40.000000, 932.000000)">
                <g id="Server-Details-default" transform="translate(70.000000, 47.000000)" sketch:type="MSShapeGroup">
                    <path d="M0,7 L0,15 L2,13 L4,15 L6,13 L8,15 L10,13 L12,15 L12,7 C12,3.69 9.31,1 6,1 C2.69,1 0,3.69 0,7 L0,7 Z M2,6.5 C2,5.67 2.67,5 3.5,5 C4.33,5 5,5.67 5,6.5 C5,7.33 4.33,8 3.5,8 C2.67,8 2,7.33 2,6.5 L2,6.5 Z M7,6.5 C7,5.67 7.67,5 8.5,5 C9.33,5 10,5.67 10,6.5 C10,7.33 9.33,8 8.5,8 C7.67,8 7,7.33 7,6.5 L7,6.5 Z M2,9.5 C2,9.22 2.22,9 2.5,9 L9.5,9 C9.78,9 10,9.22 10,9.5 L10,10.5 C10,10.78 9.78,11 9.5,11 L2.5,11 C2.22,11 2,10.78 2,10.5 L2,9.5 L2,9.5 Z" id="Shape"/>
                </g>
            </g>
        </g>
    </g>
</svg>